# xmcd CD database file
#
# Track frame offsets:
#	150
#	15167
#	25574
#	40108
#	56150
#	68031
#	85641
#	104106
#	116912
#	135643
#	151527
#	167340
#
# Disc length: 2518 seconds
#
# Revision: 0
# Processed by: cddbd v1.5.2PL0 Copyright (c) Steve Scherf et al.
# Submitted via: CDex 1.70beta2
#
DISCID=8709d40c
DTITLE=早川えみ - Feel the Jazz breeze
DYEAR=2008
DGENRE=Jazz
TTITLE0=On the street where you live
TTITLE1=Pick yourself up
TTITLE2=LOVE
TTITLE3=My foolish heart
TTITLE4=Charade
TTITLE5=The days of wine and roses
TTITLE6=Waltz for Debby
TTITLE7=Danny Boy
TTITLE8=You are my sunshine
TTITLE9=My favorite things
TTITLE10=Taking a chance on love
TTITLE11=涙そうそう (English version)
EXTD=YEAR: 2008
EXTT0=
EXTT1=
EXTT2=
EXTT3=
EXTT4=
EXTT5=
EXTT6=
EXTT7=
EXTT8=
EXTT9=
EXTT10=
EXTT11=
PLAYORDER=
